[b]Artist: Demons & Wizards
Album: Touched By The Crimson King
Genre: Power Metal
Source: CD
Year: 2005
Ripper: EAC, secure no C2, accurate stream, disable cache & NEC DVD RW ND-4551A
Codec: Free Lossless Audio Codec (FLAC)
Version: reference libFLAC 1.2.1 20070917
Quality: Lossless, (avg. compression: 75 %)
Channels: Stereo / 44100 HZ / 16 Bit
Tags: VorbisComment
Information: Label: SPV 089-99490 2CD
Included: NFO, LOG, CUE
Covers: Full Artwork

[IMG]http://img709.imageshack.us/img709/582/tracklistz.jpg[/IMG]

CD 1

  1. (00:05:47) Demons & Wizards - Crimson King
  2. (00:05:13) Demons & Wizards - Beneath These Waves
  3. (00:04:46) Demons & Wizards - Terror Train
  4. (00:05:23) Demons & Wizards - Seize The Day
  5. (00:05:16) Demons & Wizards - The Gunslinger
  6. (00:05:28) Demons & Wizards - Love's Tragedy Asunder
  7. (00:03:32) Demons & Wizards - Wicked Witch
  8. (00:06:36) Demons & Wizards - Dorian
  9. (00:04:54) Demons & Wizards - Down Where I Am
 10. (00:02:29) Demons & Wizards - Immigrant Song

CD 2

  1. (00:04:04) Demons & Wizards - Lunar Lament
  2. (00:03:57) Demons & Wizards - Wicked Witch (Slow Version)
  3. (00:05:46) Demons & Wizards - Spatial Architects
  4. (00:03:40) Demons & Wizards - Beneath These Waves (Edit)[/b]

[IMG]http://img266.imageshack.us/img266/2199/dati.jpg[/IMG]

Exact Audio Copy V0.99 prebeta 5 from 4. May 2009

EAC extraction logfile from 26. December 2010, 14:16

Demons & Wizards / Touched By The Crimson King - Cd 1

Used drive  : _NEC    DVD_RW ND-4551A   Adapter: 2  ID: 2

Read mode               : Secure
Utilize accurate stream : Yes
Defeat audio cache      : Yes
Make use of C2 pointers : No

Read offset correction                      : 48
Overread into Lead-In and Lead-Out          : No
Fill up missing offset samples with silence : Yes
Delete leading and trailing silent blocks   : No
Null samples used in CRC calculations       : Yes
Used interface                              : Native Win32 interface for Win NT & 2000
Gap handling                                : Appended to previous track

Used output format              : User Defined Encoder
Selected bitrate                : 768 kBit/s
Quality                         : High
Add ID3 tag                     : No
Command line compressor         : C:\Programmi\Exact Audio Copy\FLAC\FLAC.EXE
Additional command line options : -8 -V -T "artist=%a" -T "title=%t" -T "album=%g" -T "date=%y" -T "tracknumber=%n" -T "genre=%m" %s


TOC of the extracted CD

     Track |   Start  |  Length  | Start sector | End sector 
    ---------------------------------------------------------
        1  |  0:00.00 |  5:47.17 |         0    |    26041   
        2  |  5:47.17 |  5:12.54 |     26042    |    49495   
        3  | 10:59.71 |  4:46.07 |     49496    |    70952   
        4  | 15:46.03 |  5:22.53 |     70953    |    95155   
        5  | 21:08.56 |  5:15.41 |     95156    |   118821   
        6  | 26:24.22 |  5:28.21 |    118822    |   143442   
        7  | 31:52.43 |  3:32.24 |    143443    |   159366   
        8  | 35:24.67 |  6:36.34 |    159367    |   189100   
        9  | 42:01.26 |  4:54.15 |    189101    |   211165   
       10  | 46:55.41 |  2:28.48 |    211166    |   222313   


Track  1

     Filename C:\Documents and Settings\Administrator\Documenti\01 - Crimson King.wav

     Pre-gap length  0:00:02.00

     Peak level 99.6 %
     Track quality 100.0 %
     Test CRC 692ABDE9
     Copy CRC 692ABDE9
     Accurately ripped (confidence 64)  [F2660614]
     Copy OK

Track  2

     Filename C:\Documents and Settings\Administrator\Documenti\02 - Beneath These Waves.wav

     Pre-gap length  0:00:00.03

     Peak level 99.8 %
     Track quality 100.0 %
     Test CRC 6EC60390
     Copy CRC 6EC60390
     Accurately ripped (confidence 64)  [79EBBDFF]
     Copy OK

Track  3

     Filename C:\Documents and Settings\Administrator\Documenti\03 - Terror Train.wav

     Pre-gap length  0:00:01.10

     Peak level 99.3 %
     Track quality 100.0 %
     Test CRC A7B02F9E
     Copy CRC A7B02F9E
     Accurately ripped (confidence 65)  [6DA27BA8]
     Copy OK

Track  4

     Filename C:\Documents and Settings\Administrator\Documenti\04 - Seize The Day.wav

     Pre-gap length  0:00:01.04

     Peak level 99.8 %
     Track quality 100.0 %
     Test CRC B91E6EC6
     Copy CRC B91E6EC6
     Accurately ripped (confidence 64)  [A9E303DC]
     Copy OK

Track  5

     Filename C:\Documents and Settings\Administrator\Documenti\05 - The Gunslinger.wav

     Pre-gap length  0:00:00.04

     Peak level 99.1 %
     Track quality 100.0 %
     Test CRC 21109553
     Copy CRC 21109553
     Accurately ripped (confidence 64)  [0BF1FD7D]
     Copy OK

Track  6

     Filename C:\Documents and Settings\Administrator\Documenti\06 - Love's Tragedy Asunder.wav

     Pre-gap length  0:00:01.61

     Peak level 99.8 %
     Track quality 100.0 %
     Test CRC E50DB752
     Copy CRC E50DB752
     Accurately ripped (confidence 64)  [D480E49E]
     Copy OK

Track  7

     Filename C:\Documents and Settings\Administrator\Documenti\07 - Wicked Witch.wav

     Pre-gap length  0:00:02.16

     Peak level 84.4 %
     Track quality 100.0 %
     Test CRC 5E5A51F4
     Copy CRC 5E5A51F4
     Accurately ripped (confidence 63)  [82116763]
     Copy OK

Track  8

     Filename C:\Documents and Settings\Administrator\Documenti\08 - Dorian.wav

     Peak level 99.9 %
     Track quality 100.0 %
     Test CRC E27A9F96
     Copy CRC E27A9F96
     Accurately ripped (confidence 64)  [4BC35D62]
     Copy OK

Track  9

     Filename C:\Documents and Settings\Administrator\Documenti\09 - Down Where I Am.wav

     Pre-gap length  0:00:00.10

     Peak level 99.7 %
     Track quality 99.9 %
     Test CRC 0580E143
     Copy CRC 0580E143
     Accurately ripped (confidence 64)  [79B64720]
     Copy OK

Track 10

     Filename C:\Documents and Settings\Administrator\Documenti\10 - Immigrant Song.wav

     Peak level 99.6 %
     Track quality 100.0 %
     Test CRC 884C49A6
     Copy CRC 884C49A6
     Accurately ripped (confidence 62)  [EC794A54]
     Copy OK


All tracks accurately ripped

No errors occurred

End of status report



Exact Audio Copy V0.99 prebeta 5 from 4. May 2009

EAC extraction logfile from 26. December 2010, 15:12

Demons & Wizards / Touched by the Crimson King - Cd 2

Used drive  : _NEC    DVD_RW ND-4551A   Adapter: 2  ID: 2

Read mode               : Secure
Utilize accurate stream : Yes
Defeat audio cache      : Yes
Make use of C2 pointers : No

Read offset correction                      : 48
Overread into Lead-In and Lead-Out          : No
Fill up missing offset samples with silence : Yes
Delete leading and trailing silent blocks   : No
Null samples used in CRC calculations       : Yes
Used interface                              : Native Win32 interface for Win NT & 2000
Gap handling                                : Appended to previous track

Used output format              : User Defined Encoder
Selected bitrate                : 768 kBit/s
Quality                         : High
Add ID3 tag                     : No
Command line compressor         : C:\Programmi\Exact Audio Copy\FLAC\FLAC.EXE
Additional command line options : -8 -V -T "artist=%a" -T "title=%t" -T "album=%g" -T "date=%y" -T "tracknumber=%n" -T "genre=%m" %s


TOC of the extracted CD

     Track |   Start  |  Length  | Start sector | End sector 
    ---------------------------------------------------------
        1  |  0:00.00 |  4:04.33 |         0    |    18332   
        2  |  4:04.33 |  3:56.54 |     18333    |    36086   
        3  |  8:01.12 |  5:46.14 |     36087    |    62050   
        4  | 13:47.26 |  3:40.23 |     62051    |    78573   


Track  1

     Filename C:\Documents and Settings\Administrator\Documenti\01 - Lunar Lament.wav

     Pre-gap length  0:00:02.00

     Peak level 99.3 %
     Track quality 100.0 %
     Test CRC 36DCB3E8
     Copy CRC 36DCB3E8
     Accurately ripped (confidence 43)  [0B58A9BA]
     Copy OK

Track  2

     Filename C:\Documents and Settings\Administrator\Documenti\02 - Wicked Witch (Slow Version).wav

     Peak level 75.3 %
     Track quality 100.0 %
     Test CRC 282293FB
     Copy CRC 282293FB
     Accurately ripped (confidence 44)  [779B5830]
     Copy OK

Track  3

     Filename C:\Documents and Settings\Administrator\Documenti\03 - Spatial Architects.wav

     Peak level 99.9 %
     Track quality 100.0 %
     Test CRC 41791BB8
     Copy CRC 41791BB8
     Accurately ripped (confidence 44)  [1204D034]
     Copy OK

Track  4

     Filename C:\Documents and Settings\Administrator\Documenti\04 - Beneath These Waves (Edit).wav

     Pre-gap length  0:00:00.01

     Peak level 99.8 %
     Track quality 100.0 %
     Test CRC 9A68B224
     Copy CRC 9A68B224
     Accurately ripped (confidence 42)  [99EB9465]
     Copy OK


All tracks accurately ripped

No errors occurred

End of status report